STARTFONT 2.1
COMMENT Copyright (C) 1990-1991 EWT Consulting
COMMENT Portions Copyright (C) 1994-1995 Cronyx Ltd.
COMMENT Changes Copyright (C) 1996-1997 by Andrey A. Chernov, Moscow, Russia.
COMMENT Modified by Serge Vakulenko, <vak@cronyx.ru>
COMMENT This software may be used, modified, copied, distributed, and sold,
COMMENT in both source and binary form provided that the copyright
COMMENT and these terms are retained. Under no circumstances is the author
COMMENT responsible for the proper functioning of this software, nor does
COMMENT the author assume any responsibility for damages incurred with its use.
COMMENT $XFree86: xc/fonts/bdf/cyrillic/crox5hbo.bdf,v 3.2.4.1 1998/02/01 16:04:02 robin Exp $
FONT -Cronyx-Helvetica-Bold-O-Normal--25-180-100-100-P-98-KOI8-R
SIZE 18 96 96
FONTBOUNDINGBOX 33 26 -1 -6
STARTPROPERTIES 20
DEFAULT_CHAR 32
FONT_ASCENT 23
FONT_DESCENT 6
SPACING "P"
FONTNAME_REGISTRY ""
FOUNDRY "Cronyx"
FAMILY_NAME "Helvetica"
WEIGHT_NAME "Bold"
SLANT "O"
SETWIDTH_NAME "Normal"
ADD_STYLE_NAME ""
AVERAGE_WIDTH 98
CHARSET_REGISTRY "KOI8"
CHARSET_ENCODING "R"
PIXEL_SIZE 25
POINT_SIZE 180
RESOLUTION_X 100
RESOLUTION_Y 100
COPYRIGHT "Copyright (C) 1990, 1991 EWT Consulting, Portions Copyright (C) 1994 Cronyx Ltd., Portions Copyright (C) 1996-1997 by Andrey A. Chernov, Moscow, Russia."
_XMBDFED_INFO "Edited with xmbdfed 2.7."
ENDPROPERTIES
CHARS 165
STARTCHAR space
ENCODING 32
SWIDTH 292 0
DWIDTH 7 0
BBX 0 0 -1 0
BITMAP
ENDCHAR
STARTCHAR exclam
ENCODING 33
SWIDTH 412 0
DWIDTH 7 0
BBX 8 17 1 0
BITMAP
07
07
07
0E
0E
0E
1C
1C
1C
38
38
38
70
00
00
E0
E0
ENDCHAR
STARTCHAR quotedbl
ENCODING 34
SWIDTH 1500 0
DWIDTH 9 0
BBX 9 6 0 11
BITMAP
3B80
7700
7700
7700
EE00
EE00
ENDCHAR
STARTCHAR numbersign
ENCODING 35
SWIDTH 824 0
DWIDTH 14 0
BBX 17 17 0 0
BITMAP
007700
007700
007700
01DC00
01DC00
07FF00
0FFE00
03B800
077000
0EE000
3FF800
3FF800
1DC000
1DC000
3B8000
770000
770000
ENDCHAR
STARTCHAR dollar
ENCODING 36
SWIDTH 700 0
DWIDTH 14 0
BBX 18 20 0 -2
BITMAP
001800
007E00
01FF80
03B780
073380
073000
0E6000
076000
07F800
03FC00
00DC00
00CE00
019C00
019C00
399C00
7B7000
3FF000
0FC000
060000
060000
ENDCHAR
STARTCHAR percent
ENCODING 37
SWIDTH 1353 0
DWIDTH 23 0
BBX 26 17 0 0
BITMAP
01F01C00
03F81C00
07BC3800
0E38E000
0E38E000
0F79C000
0FE70000
07C70000
000E0000
0038F800
0039FC00
0073DE00
01C71C00
01C71C00
0387BC00
0E07F000
0E03E000
ENDCHAR
STARTCHAR ampersand
ENCODING 38
SWIDTH 1000 0
DWIDTH 17 0
BBX 20 17 0 0
BITMAP
007800
00FC00
01CE00
039C00
039C00
01F800
03F000
01E000
07F000
1EE700
1CF700
387F00
707C00
703C00
387C00
7FFC00
1F9E00
ENDCHAR
STARTCHAR quoteright
ENCODING 39
SWIDTH 833 0
DWIDTH 5 0
BBX 5 6 0 11
BITMAP
38
70
70
70
E0
E0
ENDCHAR
STARTCHAR parenleft
ENCODING 40
SWIDTH 409 0
DWIDTH 9 0
BBX 13 22 1 -5
BITMAP
0038
0070
00E0
01C0
01C0
0380
0700
0700
0E00
0E00
0E00
1C00
1C00
1C00
3800
3800
1C00
3800
3800
1C00
3800
1C00
ENDCHAR
STARTCHAR parenright
ENCODING 41
SWIDTH 409 0
DWIDTH 9 0
BBX 13 22 0 -5
BITMAP
01C0
00E0
01C0
00E0
00E0
01C0
00E0
00E0
01C0
01C0
01C0
0380
0380
0380
0700
0700
0E00
1C00
1C00
3800
7000
E000
ENDCHAR
STARTCHAR asterisk
ENCODING 42
SWIDTH 1571 0
DWIDTH 11 0
BBX 10 7 1 10
BITMAP
0600
0600
7F80
3F00
1E00
7E00
6600
ENDCHAR
STARTCHAR plus
ENCODING 43
SWIDTH 1500 0
DWIDTH 15 0
BBX 14 10 1 4
BITMAP
01C0
01C0
0380
0380
3FF8
7FF0
0700
0700
0E00
0E00
ENDCHAR
STARTCHAR comma
ENCODING 44
SWIDTH 1750 0
DWIDTH 7 0
BBX 4 4 1 -2
BITMAP
70
70
60
C0
ENDCHAR
STARTCHAR minus
ENCODING 45
SWIDTH 4500 0
DWIDTH 9 0
BBX 7 2 0 5
BITMAP
FE
FE
ENDCHAR
STARTCHAR period
ENCODING 46
SWIDTH 3500 0
DWIDTH 7 0
BBX 3 2 1 0
BITMAP
E0
E0
ENDCHAR
STARTCHAR slash
ENCODING 47
SWIDTH 471 0
DWIDTH 8 0
BBX 13 17 -1 0
BITMAP
0038
0038
0070
00E0
00E0
01C0
0380
0380
0700
0E00
0E00
1C00
3800
3800
7000
E000
E000
ENDCHAR
STARTCHAR zero
ENCODING 48
SWIDTH 824 0
DWIDTH 14 0
BBX 17 17 0 0
BITMAP
007800
01FE00
03CF00
070E00
0E0700
0E0700
1C0E00
1C0E00
1C0E00
381C00
381C00
381C00
703800
387000
3CF000
3FC000
0F0000
ENDCHAR
STARTCHAR one
ENCODING 49
SWIDTH 824 0
DWIDTH 14 0
BBX 12 17 1 0
BITMAP
0070
00F0
07F0
0FE0
00E0
00E0
01C0
01C0
01C0
0380
0380
0380
0700
0700
0700
0E00
0E00
ENDCHAR
STARTCHAR two
ENCODING 50
SWIDTH 824 0
DWIDTH 14 0
BBX 17 17 0 0
BITMAP
00FC00
03FF00
03CF00
0F0F00
0E0700
000700
001E00
003C00
00FC00
03E000
078000
0F0000
3C0000
380000
780000
FFF000
FFF000
ENDCHAR
STARTCHAR three
ENCODING 51
SWIDTH 824 0
DWIDTH 14 0
BBX 17 17 0 0
BITMAP
00FC00
03FF00
03CF00
0F0F00
0E0700
000E00
003C00
01F800
01F800
007800
003C00
381C00
703800
787800
3CF000
7FE000
1F8000
ENDCHAR
STARTCHAR four
ENCODING 52
SWIDTH 824 0
DWIDTH 14 0
BBX 17 17 0 0
BITMAP
000F00
001F00
003F00
007E00
00FE00
01EE00
039C00
079C00
0F1C00
1C3800
3C3800
3FFC00
7FF800
007000
007000
00E000
00E000
ENDCHAR
STARTCHAR five
ENCODING 53
SWIDTH 824 0
DWIDTH 14 0
BBX 17 17 0 0
BITMAP
01FF80
01FF80
01C000
070000
070000
070000
1FF000
1FFC00
1C3C00
003C00
001C00
001C00
003800
707800
78F000
7FE000
1F8000
ENDCHAR
STARTCHAR six
ENCODING 54
SWIDTH 824 0
DWIDTH 14 0
BBX 17 17 0 0
BITMAP
007C00
01FF00
03C700
070700
0E0000
0E0000
1DF000
1FFC00
1F3C00
3C3C00
381C00
381C00
703800
787800
3CF000
7FE000
1F8000
ENDCHAR
STARTCHAR seven
ENCODING 55
SWIDTH 824 0
DWIDTH 14 0
BBX 17 17 0 0
BITMAP
07FF80
07FF80
000700
001E00
001C00
003C00
007000
00F000
00E000
03C000
038000
038000
0F0000
0E0000
0E0000
1C0000
1C0000
ENDCHAR
STARTCHAR eight
ENCODING 56
SWIDTH 824 0
DWIDTH 14 0
BBX 17 17 0 0
BITMAP
007800
01FE00
01CE00
070E00
070E00
070E00
073800
07F800
07F800
1E7800
3C3C00
381C00
703800
787800
3CF000
7FE000
1F8000
ENDCHAR
STARTCHAR nine
ENCODING 57
SWIDTH 824 0
DWIDTH 14 0
BBX 17 17 0 0
BITMAP
00FC00
03FF00
03CF00
0F0F00
0E0700
0E0700
1C0E00
1E1E00
0F3E00
1FFC00
07FC00
001C00
003800
707000
38F000
7FC000
1F0000
ENDCHAR
STARTCHAR colon
ENCODING 58
SWIDTH 583 0
DWIDTH 7 0
BBX 7 12 1 0
BITMAP
0E
1C
00
00
00
00
00
00
00
00
E0
E0
ENDCHAR
STARTCHAR semicolon
ENCODING 59
SWIDTH 500 0
DWIDTH 7 0
BBX 7 14 1 -2
BITMAP
0E
0E
00
00
00
00
00
00
00
00
70
70
60
C0
ENDCHAR
STARTCHAR less
ENCODING 60
SWIDTH 938 0
DWIDTH 15 0
BBX 18 16 0 0
BITMAP
0000C0
0003C0
000F00
003C00
007800
03C000
078000
1E0000
3C0000
0F0000
078000
03C000
01E000
007800
007800
001800
ENDCHAR
STARTCHAR equal
ENCODING 61
SWIDTH 1875 0
DWIDTH 15 0
BBX 15 8 0 5
BITMAP
3FFE
3FFE
0000
0000
0000
0000
FFF8
FFF8
ENDCHAR
STARTCHAR greater
ENCODING 62
SWIDTH 938 0
DWIDTH 15 0
BBX 18 16 0 0
BITMAP
060000
078000
078000
01E000
00F000
007800
003C00
000F00
001E00
007800
00F000
078000
0F0000
3C0000
F00000
C00000
ENDCHAR
STARTCHAR question
ENCODING 63
SWIDTH 765 0
DWIDTH 13 0
BBX 16 17 0 0
BITMAP
00F8
03FE
038E
0E0E
0E0E
001E
0078
00F0
00E0
0380
0380
0380
0000
0000
0000
0E00
0E00
ENDCHAR
STARTCHAR at
ENCODING 64
SWIDTH 1190 0
DWIDTH 25 0
BBX 30 21 0 -4
BITMAP
0001FC00
000FFE00
003C0780
007001C0
01C001C0
0183F0C0
038FFEE0
063C7CC0
0E3838E0
0E7038E0
1CE0E1C0
1CE0E180
1CE1C380
18E38E00
1CFFDE00
0C3CF800
1C000000
0E000000
0781C000
03FF0000
00FC0000
ENDCHAR
STARTCHAR A
ENCODING 65
SWIDTH 941 0
DWIDTH 16 0
BBX 21 17 -1 0
BITMAP
001E00
001E00
003F00
007E00
007E00
00FF00
01CE00
01CE00
03CF00
070E00
0F0F00
0FFF00
1FFE00
3C0F00
380700
F00F00
F00F00
ENDCHAR
STARTCHAR B
ENCODING 66
SWIDTH 1000 0
DWIDTH 17 0
BBX 19 17 1 0
BITMAP
07FE00
07FF80
070380
0E0380
0E0380
0E0380
1C0F00
1FFE00
1FFF00
380E00
380700
380700
700E00
700E00
701C00
FFF800
FFE000
ENDCHAR
STARTCHAR C
ENCODING 67
SWIDTH 1059 0
DWIDTH 18 0
BBX 22 17 0 0
BITMAP
003FC0
00FFF0
01F0F8
078070
070038
0F0038
1C0000
1C0000
1C0000
380000
380000
3C00E0
3801C0
3C0380
1F0F80
1FFE00
07F800
ENDCHAR
STARTCHAR D
ENCODING 68
SWIDTH 1059 0
DWIDTH 18 0
BBX 20 17 1 0
BITMAP
07FE00
07FF80
0707C0
0E03C0
0E01C0
0E01E0
1C01C0
1C01C0
1C01C0
380380
380380
380780
700E00
701E00
707C00
FFF000
FFC000
ENDCHAR
STARTCHAR E
ENCODING 69
SWIDTH 1000 0
DWIDTH 17 0
BBX 19 17 1 0
BITMAP
07FFE0
07FFE0
070000
0E0000
0E0000
0E0000
1C0000
1FFE00
1FFE00
380000
380000
380000
700000
700000
700000
FFFC00
FFFC00
ENDCHAR
STARTCHAR F
ENCODING 70
SWIDTH 941 0
DWIDTH 16 0
BBX 19 17 1 0
BITMAP
07FFE0
07FFE0
070000
0E0000
0E0000
0E0000
1C0000
1FFE00
1FFE00
380000
380000
380000
700000
700000
700000
E00000
E00000
ENDCHAR
STARTCHAR G
ENCODING 71
SWIDTH 1118 0
DWIDTH 19 0
BBX 22 17 0 0
BITMAP
003FC0
00FFF0
01F0F8
078070
070038
0F0038
1C0000
1C0000
1C0000
381FE0
381FE0
3C00E0
3801C0
3C03C0
1F0FC0
1FFF80
07F980
ENDCHAR
STARTCHAR H
ENCODING 72
SWIDTH 1059 0
DWIDTH 18 0
BBX 19 17 1 0
BITMAP
0700E0
0700E0
0700E0
0E01C0
0E01C0
0E01C0
1C0380
1FFF80
1FFF80
380700
380700
380700
700E00
700E00
700E00
E01C00
E01C00
ENDCHAR
STARTCHAR I
ENCODING 73
SWIDTH 412 0
DWIDTH 7 0
BBX 8 17 1 0
BITMAP
07
07
07
0E
0E
0E
1C
1C
1C
38
38
38
70
70
70
E0
E0
ENDCHAR
STARTCHAR J
ENCODING 74
SWIDTH 765 0
DWIDTH 13 0
BBX 16 17 -1 0
BITMAP
0007
0007
0007
000E
000E
000E
001C
001C
001C
0038
0038
0038
7070
7070
38E0
7FC0
1F00
ENDCHAR
STARTCHAR K
ENCODING 75
SWIDTH 1000 0
DWIDTH 17 0
BBX 20 17 1 0
BITMAP
0701E0
0703C0
070780
0E1E00
0E3C00
0E7800
1DE000
1FF000
1FF000
3EF000
3C7800
383800
707800
703C00
701C00
E03C00
E01E00
ENDCHAR
STARTCHAR L
ENCODING 76
SWIDTH 824 0
DWIDTH 14 0
BBX 17 17 1 0
BITMAP
070000
070000
070000
0E0000
0E0000
0E0000
1C0000
1C0000
1C0000
380000
380000
380000
700000
700000
700000
FFF000
FFF000
ENDCHAR
STARTCHAR M
ENCODING 77
SWIDTH 1235 0
DWIDTH 21 0
BBX 22 17 1 0
BITMAP
07001C
07001C
07803C
0F0078
0F80F8
0F80F8
1F83F0
1F83F0
1FC7F0
3B8EE0
3BDEE0
39DCE0
73F9C0
71F1C0
71F1C0
E1C380
E1C380
ENDCHAR
STARTCHAR N
ENCODING 78
SWIDTH 1118 0
DWIDTH 19 0
BBX 20 17 1 0
BITMAP
070070
078070
07C070
0FC0E0
0FC0E0
0FE0E0
1DE1C0
1CF1C0
1C71C0
38F380
387B80
383F80
703F00
703F00
701F00
E01E00
E00E00
ENDCHAR
STARTCHAR O
ENCODING 79
SWIDTH 1176 0
DWIDTH 20 0
BBX 23 17 0 0
BITMAP
003FC0
00FFF0
01F0F8
078078
070038
0F003C
1C0038
1C0038
1C0038
380070
380070
3C00F0
3801C0
3C03C0
1F0F80
1FFE00
07F800
ENDCHAR
STARTCHAR P
ENCODING 80
SWIDTH 1000 0
DWIDTH 17 0
BBX 20 17 1 0
BITMAP
07FF80
07FFE0
0700E0
0E00E0
0E00E0
0E00E0
1C01C0
1C0380
1FFF80
3FFC00
380000
380000
700000
700000
700000
E00000
E00000
ENDCHAR
STARTCHAR Q
ENCODING 81
SWIDTH 1053 0
DWIDTH 20 0
BBX 24 19 0 -2
BITMAP
001FE0
007FF8
01F0F8
03C03C
03801C
0F003C
0E001C
0E001C
1C0038
1C0038
1C0038
3C0CF0
1C1EE0
1E0FE0
1F0F80
0FFF80
03FFC0
0003C0
000180
ENDCHAR
STARTCHAR R
ENCODING 82
SWIDTH 1059 0
DWIDTH 18 0
BBX 21 17 1 0
BITMAP
07FF80
07FFE0
0700E0
0E00E0
0E00E0
0E00E0
1C01C0
1C0380
1FFF80
3FFE00
380F00
380700
700700
700700
700700
E00F00
E00700
ENDCHAR
STARTCHAR S
ENCODING 83
SWIDTH 1000 0
DWIDTH 17 0
BBX 20 17 0 0
BITMAP
007F00
01FFC0
01C1E0
0701C0
070000
070000
070000
07FE00
01FF80
000700
000380
000380
700700
780700
3E0E00
3FFC00
0FF000
ENDCHAR
STARTCHAR T
ENCODING 84
SWIDTH 1000 0
DWIDTH 17 0
BBX 22 17 -1 0
BITMAP
07FFFC
07FFFC
000E00
001C00
001C00
001C00
003800
003800
003800
007000
007000
007000
00E000
00E000
00E000
01C000
01C000
ENDCHAR
STARTCHAR U
ENCODING 85
SWIDTH 1059 0
DWIDTH 18 0
BBX 19 17 1 0
BITMAP
0700E0
0700E0
0700E0
0E01C0
0E01C0
0E01C0
1C0380
1C0380
1C0380
380700
380700
380700
700E00
381C00
3C3C00
3FF000
0FC000
ENDCHAR
STARTCHAR V
ENCODING 86
SWIDTH 941 0
DWIDTH 16 0
BBX 21 17 -1 0
BITMAP
078078
078078
038070
0781E0
0381C0
0381C0
078780
038700
03CF00
039C00
039C00
03FC00
03F000
03F000
03F000
03C000
03C000
ENDCHAR
STARTCHAR W
ENCODING 87
SWIDTH 1353 0
DWIDTH 23 0
BBX 28 17 -1 0
BITMAP
0701C070
0701C070
0781C0F0
0707C1C0
0707C1C0
078FE3C0
071DC700
071DC700
07BDEF00
0771DC00
0771DC00
07F1FC00
07C1F000
07C1F000
0380E000
0701C000
0701C000
ENDCHAR
STARTCHAR X
ENCODING 88
SWIDTH 1059 0
DWIDTH 18 0
BBX 23 17 -1 0
BITMAP
07000E
07801E
03C03C
03C0F0
01E1E0
00F3C0
00FF00
007E00
003C00
00FC00
01FE00
03CF00
0F0F00
1E0780
3C03C0
F003C0
E001C0
ENDCHAR
STARTCHAR Y
ENCODING 89
SWIDTH 1000 0
DWIDTH 17 0
BBX 22 17 -1 0
BITMAP
07001C
07803C
03C078
03C1E0
01E3C0
00F780
00FE00
007C00
003800
007000
007000
007000
00E000
00E000
00E000
01C000
01C000
ENDCHAR
STARTCHAR Z
ENCODING 90
SWIDTH 882 0
DWIDTH 15 0
BBX 20 17 -1 0
BITMAP
03FFE0
03FFE0
0003C0
000700
000F00
001E00
003800
007800
00F000
03C000
038000
078000
1E0000
1C0000
3C0000
FFFE00
FFFE00
ENDCHAR
STARTCHAR bracketleft
ENCODING 91
SWIDTH 364 0
DWIDTH 8 0
BBX 12 22 1 -5
BITMAP
01F0
01F0
0380
0380
0380
0700
0700
0700
0E00
0E00
0E00
1C00
1C00
1C00
3800
3800
3800
7000
7000
7000
F800
F800
ENDCHAR
STARTCHAR backslash
ENCODING 92
SWIDTH 471 0
DWIDTH 8 0
BBX 13 17 -1 0
BITMAP
0700
0700
0380
0700
0700
0380
0700
0700
0380
0700
0700
0380
0700
0700
0380
0700
0700
ENDCHAR
STARTCHAR bracketright
ENCODING 93
SWIDTH 364 0
DWIDTH 8 0
BBX 12 22 0 -5
BITMAP
01F0
01F0
00E0
00E0
00E0
01C0
01C0
01C0
0380
0380
0380
0700
0700
0700
0E00
0E00
0E00
1C00
1C00
1C00
F800
F800
ENDCHAR
STARTCHAR asciicircum
ENCODING 94
SWIDTH 3000 0
DWIDTH 12 0
BBX 11 4 0 13
BITMAP
0F00
1F80
7F80
E1C0
ENDCHAR
STARTCHAR underscore
ENCODING 95
SWIDTH 7000 0
DWIDTH 14 0
BBX 14 2 -1 -3
BITMAP
FFFC
FFFC
ENDCHAR
STARTCHAR quoteleft
ENCODING 96
SWIDTH 2250 0
DWIDTH 9 0
BBX 8 4 0 13
BITMAP
78
3C
1C
06
ENDCHAR
STARTCHAR a
ENCODING 97
SWIDTH 1167 0
DWIDTH 14 0
BBX 17 12 0 0
BITMAP
01F000
0FF800
0E3800
001C00
007800
07F800
1FF800
787000
707000
78F000
7FF800
3F7800
ENDCHAR
STARTCHAR b
ENCODING 98
SWIDTH 882 0
DWIDTH 15 0
BBX 17 17 1 0
BITMAP
070000
070000
070000
0E0000
0E0000
0FF800
1FFC00
1E3C00
1C1E00
381C00
381C00
381C00
703800
707800
78F000
FFE000
FF8000
ENDCHAR
STARTCHAR c
ENCODING 99
SWIDTH 1083 0
DWIDTH 13 0
BBX 16 12 0 0
BITMAP
00F8
07FC
0F1E
0E0E
3800
3800
3800
7000
3838
3C78
3FE0
0F80
ENDCHAR
STARTCHAR d
ENCODING 100
SWIDTH 882 0
DWIDTH 15 0
BBX 17 17 0 0
BITMAP
000380
000380
000380
000700
000700
01FF00
0FFE00
0F1E00
1E0E00
381C00
381C00
381C00
703800
783800
3C7800
7FF000
1FF000
ENDCHAR
STARTCHAR e
ENCODING 101
SWIDTH 1250 0
DWIDTH 15 0
BBX 17 12 0 0
BITMAP
00F800
07FC00
0F1E00
0E0E00
380E00
3FFE00
3FFE00
700000
380000
3C3C00
3FF000
0FC000
ENDCHAR
STARTCHAR f
ENCODING 102
SWIDTH 412 0
DWIDTH 7 0
BBX 12 17 -1 0
BITMAP
00F0
01F0
01C0
0380
0380
0FE0
1FC0
0700
0700
0E00
0E00
0E00
1C00
1C00
1C00
3800
3800
ENDCHAR
STARTCHAR g
ENCODING 103
SWIDTH 882 0
DWIDTH 15 0
BBX 17 17 0 -5
BITMAP
00FF80
03FF80
03C780
0F0700
0E0700
0E0700
1C0E00
1C0E00
1E0E00
1E3C00
1FFC00
07FC00
003800
003800
387000
7FE000
1F8000
ENDCHAR
STARTCHAR h
ENCODING 104
SWIDTH 824 0
DWIDTH 14 0
BBX 15 17 1 0
BITMAP
0700
0700
0700
0E00
0E00
0FE0
1FF0
1E70
1C38
3870
3870
3870
70E0
70E0
70E0
E1C0
E1C0
ENDCHAR
STARTCHAR i
ENCODING 105
SWIDTH 412 0
DWIDTH 7 0
BBX 8 17 1 0
BITMAP
07
07
00
00
00
0E
1C
1C
1C
38
38
38
70
70
70
E0
E0
ENDCHAR
STARTCHAR j
ENCODING 106
SWIDTH 318 0
DWIDTH 7 0
BBX 12 22 -1 -5
BITMAP
0070
0070
0000
0000
0000
01C0
01C0
01C0
0380
0380
0380
0700
0700
0700
0E00
0E00
0E00
1C00
1C00
1C00
F800
F000
ENDCHAR
STARTCHAR k
ENCODING 107
SWIDTH 765 0
DWIDTH 13 0
BBX 16 17 1 0
BITMAP
0700
0700
0700
0E00
0E00
0E3C
1CF0
1DE0
1FC0
3F00
3F80
3FC0
7380
73C0
71E0
E1C0
E1E0
ENDCHAR
STARTCHAR l
ENCODING 108
SWIDTH 412 0
DWIDTH 7 0
BBX 8 17 1 0
BITMAP
07
07
07
0E
0E
0E
1C
1C
1C
38
38
38
70
70
70
E0
E0
ENDCHAR
STARTCHAR m
ENCODING 109
SWIDTH 1750 0
DWIDTH 21 0
BBX 21 12 1 0
BITMAP
0FF3E0
1FFFE0
1E7CE0
1C3870
3870E0
3870E0
3870E0
70E1C0
70E1C0
70E1C0
E1C380
E1C380
ENDCHAR
STARTCHAR n
ENCODING 110
SWIDTH 1167 0
DWIDTH 14 0
BBX 14 12 1 0
BITMAP
0FE0
1FF0
1E70
1C38
3870
3870
3870
70E0
70E0
70E0
E1C0
E1C0
ENDCHAR
STARTCHAR o
ENCODING 111
SWIDTH 1250 0
DWIDTH 15 0
BBX 17 12 0 0
BITMAP
01FC00
0FFE00
0F1E00
1E0F00
380E00
380E00
380E00
701C00
783C00
3C7800
7FF000
1FC000
ENDCHAR
STARTCHAR p
ENCODING 112
SWIDTH 882 0
DWIDTH 15 0
BBX 17 17 1 -5
BITMAP
07FC00
07FF00
078F00
0E0F00
0E0700
0E0700
1C0E00
1C0E00
1C1E00
3C7800
3FF800
3FE000
700000
700000
700000
E00000
E00000
ENDCHAR
STARTCHAR q
ENCODING 113
SWIDTH 882 0
DWIDTH 15 0
BBX 17 17 0 -5
BITMAP
00FF80
03FF80
03C780
0F0700
0E0700
0E0700
1C0E00
1C0E00
1E0E00
1E3C00
1FFC00
07FC00
003800
003800
003800
007000
007000
ENDCHAR
STARTCHAR r
ENCODING 114
SWIDTH 750 0
DWIDTH 9 0
BBX 11 12 1 0
BITMAP
0EE0
1FC0
1F00
1E00
3800
3800
3800
7000
7000
7000
E000
E000
ENDCHAR
STARTCHAR s
ENCODING 115
SWIDTH 1083 0
DWIDTH 13 0
BBX 15 12 0 0
BITMAP
03F0
0FF8
1E38
1C00
3E00
1FE0
07F0
01F0
0070
70F0
FFC0
3F80
ENDCHAR
STARTCHAR t
ENCODING 116
SWIDTH 467 0
DWIDTH 7 0
BBX 12 15 -1 0
BITMAP
01C0
0380
0380
0FE0
1FC0
0700
0700
0E00
0E00
0E00
1C00
1C00
1C00
3E00
1E00
ENDCHAR
STARTCHAR u
ENCODING 117
SWIDTH 1167 0
DWIDTH 14 0
BBX 14 12 1 0
BITMAP
0E1C
1C38
1C38
1C38
3870
3870
3870
70E0
70E0
39E0
7FC0
1FC0
ENDCHAR
STARTCHAR v
ENCODING 118
SWIDTH 1000 0
DWIDTH 12 0
BBX 16 12 -1 0
BITMAP
0E07
1C0E
1E1E
0E1C
1E78
0E70
0E70
1FE0
0FC0
0FC0
0F00
0F00
ENDCHAR
STARTCHAR w
ENCODING 119
SWIDTH 1583 0
DWIDTH 19 0
BBX 23 12 -1 0
BITMAP
0E0E0E
1C1C1C
1E3E3C
0E3E38
1EFEF0
0EEEE0
0EEEE0
1FDFC0
0F8F80
0F8F80
0E0E00
0E0E00
ENDCHAR
STARTCHAR x
ENCODING 120
SWIDTH 1000 0
DWIDTH 12 0
BBX 16 12 -1 0
BITMAP
0E07
1E1E
0F3C
07F8
07E0
03C0
03C0
0FC0
1FE0
3CF0
F0F0
E070
ENDCHAR
STARTCHAR y
ENCODING 121
SWIDTH 706 0
DWIDTH 12 0
BBX 17 17 -1 -5
BITMAP
070380
070380
078780
070E00
079E00
039C00
073800
07F800
03F000
07E000
03C000
03C000
070000
0F0000
0E0000
FC0000
F80000
ENDCHAR
STARTCHAR z
ENCODING 122
SWIDTH 1000 0
DWIDTH 12 0
BBX 16 12 -1 0
BITMAP
07FF
0FFE
003C
0078
01E0
03C0
03C0
0F00
1E00
3C00
FFF0
FFF0
ENDCHAR
STARTCHAR braceleft
ENCODING 123
SWIDTH 455 0
DWIDTH 10 0
BBX 14 22 0 -5
BITMAP
001C
003C
00F0
00E0
00E0
01C0
01C0
01C0
0380
0700
0E00
1C00
0E00
0700
0E00
0E00
0E00
1C00
1C00
1E00
1E00
0E00
ENDCHAR
STARTCHAR bar
ENCODING 124
SWIDTH 304 0
DWIDTH 7 0
BBX 10 23 1 -6
BITMAP
01C0
01C0
01C0
0380
0380
0380
0700
0700
0700
0E00
0000
0000
0000
1C00
1C00
3800
3800
3800
7000
7000
7000
E000
E000
ENDCHAR
STARTCHAR braceright
ENCODING 125
SWIDTH 455 0
DWIDTH 10 0
BBX 14 22 0 -5
BITMAP
01C0
01E0
01C0
00E0
00E0
01C0
01C0
01C0
0380
01C0
00E0
01C0
0380
0700
0E00
0E00
0E00
1C00
1C00
3800
F000
E000
ENDCHAR
STARTCHAR asciitilde
ENCODING 126
SWIDTH 3750 0
DWIDTH 15 0
BBX 13 4 0 13
BITMAP
3E38
7FB8
EFF0
E3E0
ENDCHAR
STARTCHAR nbsp
ENCODING 154
SWIDTH 292 0
DWIDTH 7 0
BBX 0 0 -1 0
BITMAP
ENDCHAR
STARTCHAR degree
ENCODING 156
SWIDTH 1500 0
DWIDTH 9 0
BBX 9 6 0 11
BITMAP
0E00
3E00
7700
7700
7C00
3800
ENDCHAR
STARTCHAR twosuperior
ENCODING 157
SWIDTH 1000 0
DWIDTH 8 0
BBX 9 8 0 9
BITMAP
1F00
3B80
0380
0E00
1C00
3800
E000
FE00
ENDCHAR
STARTCHAR cyr-yo
ENCODING 163
SWIDTH 1000 0
DWIDTH 15 0
BBX 18 15 0 0
BITMAP
01C700
038E00
000000
00F800
07FC00
0F1E00
0E0E00
380E00
3FFE00
3FFE00
700000
380000
3C3C00
3FF000
0FC000
ENDCHAR
STARTCHAR cyr-Yo
ENCODING 179
SWIDTH 850 0
DWIDTH 17 0
BBX 20 20 1 0
BITMAP
00E1C0
00E1C0
000000
07FFE0
07FFE0
070000
0E0000
0E0000
0E0000
1C0000
1FFE00
1FFE00
380000
380000
380000
700000
700000
700000
FFFC00
FFFC00
ENDCHAR
STARTCHAR copyright
ENCODING 191
SWIDTH 1235 0
DWIDTH 21 0
BBX 22 17 1 0
BITMAP
003F80
00F1E0
01C070
073E70
067730
0EE3B8
19C730
19C030
19C030
338060
338E60
3B8EE0
33B980
39F380
1C0700
1E3C00
07F000
ENDCHAR
STARTCHAR cyr-yu
ENCODING 192
SWIDTH 1500 0
DWIDTH 18 0
BBX 20 12 0 0
BITMAP
0E3F80
1DFFC0
1DE3C0
1FC1E0
3F01C0
3F01C0
3F01C0
7E0380
7F0780
778F00
EFFE00
E3F800
ENDCHAR
STARTCHAR cyr-a
ENCODING 193
SWIDTH 1167 0
DWIDTH 14 0
BBX 17 12 0 0
BITMAP
01F000
0FF800
0E3800
001C00
007800
07F800
1FF800
787000
707000
78F000
7FF800
3F7800
ENDCHAR
STARTCHAR cyr-be
ENCODING 194
SWIDTH 938 0
DWIDTH 15 0
BBX 18 16 0 0
BITMAP
000780
00FF00
07FC00
0F0000
0FFC00
1FFE00
1E0E00
1E0F00
380E00
380E00
380E00
701C00
703C00
383800
7FF000
1FC000
ENDCHAR
STARTCHAR cyr-tse
ENCODING 195
SWIDTH 1000 0
DWIDTH 14 0
BBX 15 14 1 -2
BITMAP
0E1C
0E1C
0E1C
1C38
1C38
1C38
3870
3870
3870
70E0
7FF0
7FF0
00E0
00E0
ENDCHAR
STARTCHAR cyr-de
ENCODING 196
SWIDTH 1143 0
DWIDTH 16 0
BBX 18 14 0 -2
BITMAP
01FF00
01FF00
01C700
038E00
038E00
038E00
071C00
071C00
071C00
1C3800
7FFE00
7FFE00
E01C00
E01C00
ENDCHAR
STARTCHAR cyr-ie
ENCODING 197
SWIDTH 1250 0
DWIDTH 15 0
BBX 17 12 0 0
BITMAP
00F800
07FC00
0F1E00
0E0E00
380E00
3FFE00
3FFE00
700000
380000
3C3C00
3FF000
0FC000
ENDCHAR
STARTCHAR cyr-ef
ENCODING 198
SWIDTH 944 0
DWIDTH 17 0
BBX 21 18 0 -5
BITMAP
000E00
00FF80
03FFE0
03DDE0
0F39E0
0E38E0
0E38E0
1C71C0
1C71C0
1E73C0
1EEF00
1FFF00
07FC00
01C000
01C000
01C000
038000
038000
ENDCHAR
STARTCHAR cyr-ghe
ENCODING 199
SWIDTH 1083 0
DWIDTH 13 0
BBX 14 12 1 0
BITMAP
0FFC
1FF8
1C00
1C00
3800
3800
3800
7000
7000
7000
E000
E000
ENDCHAR
STARTCHAR cyr-kha
ENCODING 200
SWIDTH 1000 0
DWIDTH 12 0
BBX 16 12 -1 0
BITMAP
0E07
1E1E
0F3C
07F8
07E0
03C0
03C0
0FC0
1FE0
3CF0
F0F0
E070
ENDCHAR
STARTCHAR cyr-i
ENCODING 201
SWIDTH 1083 0
DWIDTH 13 0
BBX 15 12 0 0
BITMAP
0E0E
1C1C
1C3C
1C7C
39F8
3BF8
3FB8
7E70
7C70
7870
E0E0
E0E0
ENDCHAR
STARTCHAR cyr-i-short
ENCODING 202
SWIDTH 867 0
DWIDTH 13 0
BBX 16 15 0 0
BITMAP
01DC
03F8
01F0
0E0E
1C1C
1C3C
1C7C
39F8
3BF8
3FB8
7E70
7C70
7870
E0E0
E0E0
ENDCHAR
STARTCHAR cyr-ka
ENCODING 203
SWIDTH 1083 0
DWIDTH 13 0
BBX 15 12 1 0
BITMAP
0E3C
1CF0
1DE0
1FC0
3F00
3F80
3FC0
7380
73C0
71E0
E1C0
E1E0
ENDCHAR
STARTCHAR cyr-el
ENCODING 204
SWIDTH 1167 0
DWIDTH 14 0
BBX 15 12 0 0
BITMAP
03FE
07FC
071C
071C
0E38
0E38
0E38
1C70
1C70
1C70
78E0
F0E0
ENDCHAR
STARTCHAR cyr-em
ENCODING 205
SWIDTH 1417 0
DWIDTH 17 0
BBX 19 12 0 0
BITMAP
0E00E0
1E03C0
1F07C0
1F8FC0
3FBF80
3BFB80
39F380
71C700
700700
700700
E00E00
E00E00
ENDCHAR
STARTCHAR cyr-en
ENCODING 206
SWIDTH 1167 0
DWIDTH 14 0
BBX 14 12 1 0
BITMAP
0E1C
1C38
1C38
1C38
3870
3FF0
3FF0
70E0
70E0
70E0
E1C0
E1C0
ENDCHAR
STARTCHAR cyr-o
ENCODING 207
SWIDTH 1250 0
DWIDTH 15 0
BBX 17 12 0 0
BITMAP
01FC00
0FFE00
0F1E00
1E0F00
380E00
380E00
380E00
701C00
783C00
3C7800
7FF000
1FC000
ENDCHAR
STARTCHAR cyr-pe
ENCODING 208
SWIDTH 1167 0
DWIDTH 14 0
BBX 14 12 1 0
BITMAP
0FFC
1FF8
1C38
1C38
3870
3870
3870
70E0
70E0
70E0
E1C0
E1C0
ENDCHAR
STARTCHAR cyr-ya
ENCODING 209
SWIDTH 1167 0
DWIDTH 14 0
BBX 16 12 0 0
BITMAP
03FF
0FFE
1E0E
1C0E
381C
3C1C
1FFC
1FF8
0F38
1E38
7870
F070
ENDCHAR
STARTCHAR cyr-er
ENCODING 210
SWIDTH 882 0
DWIDTH 15 0
BBX 17 17 1 -5
BITMAP
07FC00
07FF00
078F00
0E0F00
0E0700
0E0700
1C0E00
1C0E00
1C1E00
3C7800
3FF800
3FE000
700000
700000
700000
E00000
E00000
ENDCHAR
STARTCHAR cyr-es
ENCODING 211
SWIDTH 1083 0
DWIDTH 13 0
BBX 16 12 0 0
BITMAP
00F8
07FC
0F1E
0E0E
3800
3800
3800
7000
3838
3C78
3FE0
0F80
ENDCHAR
STARTCHAR cyr-te
ENCODING 212
SWIDTH 1083 0
DWIDTH 13 0
BBX 17 12 -1 0
BITMAP
0FFF80
1FFF00
00E000
00E000
01C000
01C000
01C000
038000
038000
038000
070000
070000
ENDCHAR
STARTCHAR cyr-u
ENCODING 213
SWIDTH 706 0
DWIDTH 12 0
BBX 17 17 -1 -5
BITMAP
070380
070380
078780
070E00
079E00
039C00
073800
07F800
03F000
07E000
03C000
03C000
070000
0F0000
0E0000
FC0000
F80000
ENDCHAR
STARTCHAR cyr-zhe
ENCODING 214
SWIDTH 1750 0
DWIDTH 21 0
BBX 23 12 0 0
BITMAP
0E0E0E
1E1C3C
0F1C78
079CF0
07BBC0
03FF80
01FF00
07FF00
0F7780
1E73C0
78E3C0
F0E1E0
ENDCHAR
STARTCHAR cyr-ve
ENCODING 215
SWIDTH 1167 0
DWIDTH 14 0
BBX 15 12 1 0
BITMAP
0FFC
1FFC
1C1C
1C1C
3838
3FF0
3FF8
7070
7070
7070
FFE0
FFC0
ENDCHAR
STARTCHAR cyr-ierik
ENCODING 216
SWIDTH 1167 0
DWIDTH 14 0
BBX 16 12 0 0
BITMAP
0E00
1C00
1C00
1C00
3FF0
3FF8
383C
7038
7038
7078
FFE0
FFC0
ENDCHAR
STARTCHAR cyr-iery
ENCODING 217
SWIDTH 1417 0
DWIDTH 17 0
BBX 19 12 0 0
BITMAP
0E00E0
1C01C0
1C01C0
1C01C0
3FF380
3FFB80
383F80
703F00
703F00
707F00
FFEE00
FFCE00
ENDCHAR
STARTCHAR cyr-z
ENCODING 218
SWIDTH 1083 0
DWIDTH 13 0
BBX 15 12 0 0
BITMAP
07FC
1FFC
1C1C
001C
0038
03F0
03F8
0070
0070
7070
FFE0
7FC0
ENDCHAR
STARTCHAR cyr-sha
ENCODING 219
SWIDTH 1583 0
DWIDTH 19 0
BBX 21 12 0 0
BITMAP
0E1C38
1C3870
1C3870
1C3870
3870E0
3870E0
3870E0
70E1C0
70E1C0
70E1C0
FFFF80
FFFF80
ENDCHAR
STARTCHAR cyr-e-rev
ENCODING 220
SWIDTH 1167 0
DWIDTH 14 0
BBX 16 12 0 0
BITMAP
03F8
0FFC
1E3C
001E
001C
03FC
03FC
0038
0078
78F0
7FE0
3F80
ENDCHAR
STARTCHAR cyr-shcha
ENCODING 221
SWIDTH 1429 0
DWIDTH 20 0
BBX 22 14 0 -2
BITMAP
0E1C38
0E1C38
0E1C38
1C3870
1C3870
1C3870
3870E0
3870E0
3870E0
70E1C0
7FFFE0
7FFFE0
0001C0
0001C0
ENDCHAR
STARTCHAR cyr-che
ENCODING 222
SWIDTH 1167 0
DWIDTH 14 0
BBX 14 12 1 0
BITMAP
0E1C
1C38
1C38
1C38
3870
3FF0
1FF0
00E0
00E0
00E0
01C0
01C0
ENDCHAR
STARTCHAR cyr-ier
ENCODING 223
SWIDTH 1333 0
DWIDTH 16 0
BBX 18 12 0 0
BITMAP
0F8000
1F0000
070000
070000
0FFC00
0FFE00
0E0F00
1C0E00
1C0E00
1C1E00
3FF800
3FF000
ENDCHAR
STARTCHAR cyr-Yu
ENCODING 224
SWIDTH 1353 0
DWIDTH 23 0
BBX 25 17 1 0
BITMAP
0707F000
071FFC00
073E3E00
0EF01E00
0EE00E00
0FE00F00
1F800E00
1F800E00
1F800E00
3F001C00
3F001C00
3F803C00
77007000
7780F000
73E3E000
E3FF8000
E0FE0000
ENDCHAR
STARTCHAR cyr-A
ENCODING 225
SWIDTH 941 0
DWIDTH 16 0
BBX 21 17 -1 0
BITMAP
001E00
001E00
003F00
007E00
007E00
00FF00
01CE00
01CE00
03CF00
070E00
0F0F00
0FFF00
1FFE00
3C0F00
380700
F00F00
F00F00
ENDCHAR
STARTCHAR cyr-Be
ENCODING 226
SWIDTH 1000 0
DWIDTH 17 0
BBX 19 17 1 0
BITMAP
07FFC0
07FFC0
070000
0E0000
0E0000
0E0000
1C0000
1FFE00
1FFF00
380E00
380700
380700
700E00
700E00
701C00
FFF800
FFE000
ENDCHAR
STARTCHAR cyr-Tse
ENCODING 227
SWIDTH 947 0
DWIDTH 18 0
BBX 21 19 1 -2
BITMAP
038070
038070
0700E0
0700E0
0700E0
0E01C0
0E01C0
0E01C0
1C0380
1C0380
1C0380
380700
380700
380700
700E00
7FFF00
7FFF00
000E00
000E00
ENDCHAR
STARTCHAR cyr-De
ENCODING 228
SWIDTH 1000 0
DWIDTH 19 0
BBX 23 19 0 -2
BITMAP
003FF8
003FF8
007070
007070
007070
00E0E0
00E0E0
00E0E0
01C1C0
01C1C0
01C1C0
038380
038380
038380
0E0700
7FFFC0
7FFFC0
E00380
E00380
ENDCHAR
STARTCHAR cyr-Ie
ENCODING 229
SWIDTH 1000 0
DWIDTH 17 0
BBX 19 17 1 0
BITMAP
07FFE0
07FFE0
070000
0E0000
0E0000
0E0000
1C0000
1FFE00
1FFE00
380000
380000
380000
700000
700000
700000
FFFC00
FFFC00
ENDCHAR
STARTCHAR cyr-Ef
ENCODING 230
SWIDTH 1235 0
DWIDTH 21 0
BBX 24 17 0 0
BITMAP
003FE0
00FFF8
01F77C
078E3C
070E1C
0F0E1E
1C1C1C
1C1C1C
1C1C1C
3C3878
1C3870
1E38F0
1F77C0
0FFF80
03FE00
00E000
00E000
ENDCHAR
STARTCHAR cyr-Ghe
ENCODING 231
SWIDTH 1000 0
DWIDTH 17 0
BBX 19 17 1 0
BITMAP
07FFE0
07FFE0
070000
0E0000
0E0000
0E0000
1C0000
1C0000
1C0000
380000
380000
380000
700000
700000
700000
E00000
E00000
ENDCHAR
STARTCHAR cyr-Kha
ENCODING 232
SWIDTH 1059 0
DWIDTH 18 0
BBX 23 17 -1 0
BITMAP
07000E
07801E
03C03C
03C0F0
01E1E0
00F3C0
00FF00
007E00
003C00
00FC00
01FE00
03CF00
0F0F00
1E0780
3C03C0
F003C0
E001C0
ENDCHAR
STARTCHAR cyr-I
ENCODING 233
SWIDTH 1118 0
DWIDTH 19 0
BBX 20 17 1 0
BITMAP
070070
070070
070070
0E01E0
0E03E0
0E07E0
1C1FC0
1C3DC0
1C79C0
39E380
3BC380
3F8380
7E0700
7C0700
780700
E00E00
E00E00
ENDCHAR
STARTCHAR cyr-I-short
ENCODING 234
SWIDTH 950 0
DWIDTH 19 0
BBX 21 20 1 0
BITMAP
007BC0
003F80
001F00
070070
070070
070070
0E01E0
0E03E0
0E07E0
1C1FC0
1C3DC0
1C79C0
39E380
3BC380
3F8380
7E0700
7C0700
780700
E00E00
E00E00
ENDCHAR
STARTCHAR cyr-Ka
ENCODING 235
SWIDTH 1000 0
DWIDTH 17 0
BBX 20 17 1 0
BITMAP
0701E0
0703C0
070780
0E1E00
0E3C00
0E7800
1DE000
1FF000
1FF000
3EF000
3C7800
383800
707800
703C00
701C00
E03C00
E01E00
ENDCHAR
STARTCHAR cyr-El
ENCODING 236
SWIDTH 941 0
DWIDTH 16 0
BBX 18 17 0 0
BITMAP
01FFC0
01FFC0
01C1C0
038380
038380
038380
070700
070700
070700
0E0E00
0E0E00
0E0E00
1C1C00
1C1C00
1C1C00
F83800
F03800
ENDCHAR
STARTCHAR cyr-Em
ENCODING 237
SWIDTH 1235 0
DWIDTH 21 0
BBX 22 17 1 0
BITMAP
07001C
07001C
07803C
0F0078
0F80F8
0F80F8
1F83F0
1F83F0
1FC7F0
3B8EE0
3BDEE0
39DCE0
73F9C0
71F1C0
71F1C0
E1C380
E1C380
ENDCHAR
STARTCHAR cyr-En
ENCODING 238
SWIDTH 1059 0
DWIDTH 18 0
BBX 19 17 1 0
BITMAP
0700E0
0700E0
0700E0
0E01C0
0E01C0
0E01C0
1C0380
1FFF80
1FFF80
380700
380700
380700
700E00
700E00
700E00
E01C00
E01C00
ENDCHAR
STARTCHAR cyr-O
ENCODING 239
SWIDTH 1176 0
DWIDTH 20 0
BBX 23 17 0 0
BITMAP
003FC0
00FFF0
01F0F8
078078
070038
0F003C
1C0038
1C0038
1C0038
380070
380070
3C00F0
3801C0
3C03C0
1F0F80
1FFE00
07F800
ENDCHAR
STARTCHAR cyr-Pe
ENCODING 240
SWIDTH 1059 0
DWIDTH 18 0
BBX 19 17 1 0
BITMAP
07FFE0
07FFE0
0700E0
0E01C0
0E01C0
0E01C0
1C0380
1C0380
1C0380
380700
380700
380700
700E00
700E00
700E00
E01C00
E01C00
ENDCHAR
STARTCHAR cyr-Ya
ENCODING 241
SWIDTH 1059 0
DWIDTH 18 0
BBX 20 17 0 0
BITMAP
01FFF0
03FFF0
078070
0E00E0
0E00E0
0E00E0
1C01C0
1C01C0
1E01C0
1FFF80
07FF80
01E380
078700
0F0700
1E0700
780E00
F00E00
ENDCHAR
STARTCHAR cyr-Er
ENCODING 242
SWIDTH 1000 0
DWIDTH 17 0
BBX 20 17 1 0
BITMAP
07FF80
07FFE0
0700E0
0E00E0
0E00E0
0E00E0
1C01C0
1C0380
1FFF80
3FFC00
380000
380000
700000
700000
700000
E00000
E00000
ENDCHAR
STARTCHAR cyr-Es
ENCODING 243
SWIDTH 1059 0
DWIDTH 18 0
BBX 22 17 0 0
BITMAP
003FC0
00FFF0
01F0F8
078070
070038
0F0038
1C0000
1C0000
1C0000
380000
380000
3C00E0
3801C0
3C0380
1F0F80
1FFE00
07F800
ENDCHAR
STARTCHAR cyr-Te
ENCODING 244
SWIDTH 1000 0
DWIDTH 17 0
BBX 22 17 -1 0
BITMAP
07FFFC
07FFFC
000E00
001C00
001C00
001C00
003800
003800
003800
007000
007000
007000
00E000
00E000
00E000
01C000
01C000
ENDCHAR
STARTCHAR cyr-U
ENCODING 245
SWIDTH 882 0
DWIDTH 15 0
BBX 18 17 0 0
BITMAP
0701C0
0701C0
0783C0
070700
070700
078F00
071C00
07BC00
03B800
077000
03E000
03E000
07C000
078000
078000
7E0000
7C0000
ENDCHAR
STARTCHAR cyr-Zhe
ENCODING 246
SWIDTH 1471 0
DWIDTH 25 0
BBX 30 17 -1 0
BITMAP
0380E038
03C0E078
01E0E0F0
01E1C3C0
00F1C780
0079CF00
007BBC00
003FF800
003FF800
007FF000
00F77800
01E73C00
078E3C00
0F0E1E00
1E0E0F00
781C0F00
F01C0780
ENDCHAR
STARTCHAR cyr-Ve
ENCODING 247
SWIDTH 1000 0
DWIDTH 17 0
BBX 19 17 1 0
BITMAP
07FE00
07FF80
070380
0E0380
0E0380
0E0380
1C0F00
1FFE00
1FFF00
380E00
380700
380700
700E00
700E00
701C00
FFF800
FFE000
ENDCHAR
STARTCHAR cyr-Ierik
ENCODING 248
SWIDTH 1118 0
DWIDTH 19 0
BBX 21 17 1 0
BITMAP
070000
070000
070000
0E0000
0E0000
0E0000
1C0000
1FFF80
1FFFC0
3803C0
3801C0
3801C0
700380
700380
700780
FFFE00
FFFC00
ENDCHAR
STARTCHAR cyr-Iery
ENCODING 249
SWIDTH 1353 0
DWIDTH 23 0
BBX 24 17 1 0
BITMAP
070007
070007
070007
0E000E
0E000E
0E000E
1C001C
1FFF9C
1FFFDC
3803F8
3801F8
3801F8
7003F0
7003F0
7007F0
FFFEE0
FFFCE0
ENDCHAR
STARTCHAR cyr-Ze
ENCODING 250
SWIDTH 1000 0
DWIDTH 17 0
BBX 20 17 0 0
BITMAP
007F00
01FFC0
03C1E0
0701C0
0001C0
0001C0
000780
007F00
007F00
000F00
000780
000380
000700
700700
780F00
7FFC00
1FF800
ENDCHAR
STARTCHAR cyr-Sha
ENCODING 251
SWIDTH 1353 0
DWIDTH 23 0
BBX 26 17 0 0
BITMAP
070381C0
070381C0
070381C0
0E070380
0E070380
0E070380
1C0E0700
1C0E0700
1C0E0700
381C0E00
381C0E00
381C0E00
70381C00
70381C00
70381C00
FFFFF800
FFFFF800
ENDCHAR
STARTCHAR cyr-E-rev
ENCODING 252
SWIDTH 1059 0
DWIDTH 18 0
BBX 21 17 0 0
BITMAP
00FF00
03FFC0
07C3E0
0E01E0
0000E0
0000F0
0000E0
007FE0
007FE0
0001C0
0001C0
0003C0
000700
700F00
7C3E00
7FF800
1FE000
ENDCHAR
STARTCHAR cyr-Shcha
ENCODING 253
SWIDTH 1263 0
DWIDTH 24 0
BBX 28 19 0 -2
BITMAP
0381C0E0
0381C0E0
070381C0
070381C0
070381C0
0E070380
0E070380
0E070380
1C0E0700
1C0E0700
1C0E0700
381C0E00
381C0E00
381C0E00
70381C00
7FFFFE00
7FFFFE00
00001C00
00001C00
ENDCHAR
STARTCHAR cyr-Che
ENCODING 254
SWIDTH 1059 0
DWIDTH 18 0
BBX 19 17 1 0
BITMAP
0700E0
0700E0
0700E0
0E01C0
0E01C0
0E01C0
1C0380
1FFF80
0FFF80
000700
000700
000700
000E00
000E00
000E00
001C00
001C00
ENDCHAR
STARTCHAR cyr-Ier
ENCODING 255
SWIDTH 1235 0
DWIDTH 21 0
BBX 24 17 0 0
BITMAP
07E000
07E000
00E000
01C000
01C000
01C000
038000
03FFF0
03FFF8
070078
070038
070038
0E0070
0E0070
0E00F0
1FFFC0
1FFF80
ENDCHAR
ENDFONT
